<svg xmlns="http://www.w3.org/2000/svg" xmlns:xlink="http://www.w3.org/1999/xlink" id="Layer_1" x="0px" y="0px" viewBox="0 0 500 500" style="enable-background:new 0 0 500 500;" xml:space="preserve"><style type="text/css">	.st0{fill:#623012;}</style><g>	<g>		<path class="st0" d="M429.16,57.27c-16.74-14.9-25.78-22.1-25.78-22.1l4.1-5.43l7.61-13.14l0.09-5.52l-5.27,1.51l-12.64,19.67   L363.89,77.6c0,0-6.19,2.84-7.19,7.94l-4.21,7.15l-1.32-0.85l-0.9,1.41l1.06,0.73l-0.62,0.6l-1.16-0.63l-0.79,1.35l1.16,0.78   l-47.98,63.36l-1.67-1l-1.13,1.38l1.71,1.09l-0.92,0.88l-1.84-0.96l-1.13,1.68l1.21,1.04L283.64,183c0,0-0.63-13.35-2.26-15.48   c-1.63-2.14,1.09-3.43-0.5-4.56c-1.59-1.13-4.65-0.58-5.74-1.8c-1.09-1.21-4.14-3.93-5.23-8.78c-1.09-4.85,0.67-6.36,1.3-8.08   s2.09-5.98-0.58-9.62c-2.68-3.64-2.93-8.37-0.3-10.13c2.64-1.76,7.11-3.09,7.28-8.2c0.16-5.1,0.09-7.99-0.5-9.62   c-0.58-1.63,0.12-10,0.46-10.88c0.33-0.88-0.37-5.53,0.59-8.2c0.96-2.68,1.97-2.93,1.97-3.1c0-0.16-5.38-9.01-5.38-9.01   l-17.89-0.69c0,0-3.7,0.57-3.58,4.14c0.12,3.58,0.56,13.18,1.7,14.87c1.13,1.7-2.39,1.26-3.33,1.26c-0.94,0-5.93-1-6.94,3.51   c-1,4.52-2.48,6.94-5.68,7.75c-3.21,0.81-7.28,0.06-8.25,1.57c-0.98,1.51-1.54,4.52-1.07,5.21c0.47,0.69,1.07,1.76,0.85,2.88   c-0.22,1.13-2.1,3.92,0.75,7.69c2.86,3.76,3.42,3.76,4.11,6.15c0.69,2.39-1.57,4.11,2.67,7.18c4.23,3.08,5.24,2.7,5.24,2.7   s1.44,3.3,0.44,3.77c-1.01,0.47-2.33,2.35-0.69,4.04c1.53,1.6,2.37,1.3,2.47,1.27c-0.2,0.35-5.97,10.91,4.65,12.11l-3.23,8.12   c0,0-7.78,2.51-8.95,11.8c-1.17,9.29-4.06,19.83-7.57,20.46c-3.51,0.63-3.05-0.63-7.45,1.34s-5.44,3.1-7.41,1.63   c-1.97-1.46-1.34-2.09-5.64-3.26c-4.31-1.17-5.74-2.59-8.08-0.12c-2.35,2.47-4.81,2.89-4.52,6.99c0.3,4.1-0.16,6.65-1.55,6.86   c-1.38,0.21-1.84,0.46-2.6,0.33c-0.75-0.12-2.51-0.21-3.09,0.5c-0.58,0.71-2.43,2.18-3.56,2.13c-1.13-0.04-2.76,0.88-3.05,1.63   c-0.29,0.75-2.71,2.05-4.1,1.26c-1.38-0.8-25.48-28.62-43.39-31.88c-17.91-3.26-19.42-1.59-19.42-1.59l-6.36-8.78   c0,0,2.32-5.14-1.16-9.41l-1.91-1.82c0,0-2.2,2.29-1.7,4.27c0.5,1.97-0.94,3.51-2.32,4.74c-1.38,1.22-1.35,3.2-1.35,3.2   s-2.07-1.63-1.82-3.39c0.26-1.76-0.12-6.28-1.47-7.28c0,0-5.3,1.13-4.55,8.69c0.75,7.56,1.63,7.6,0.5,8.1   c-1.13,0.5-6.06,0.69-8.29,8.23s-1.57,11.17-2.51,13.52c-0.94,2.35-4.2,7.66-4.83,10.01c-0.63,2.35-2.89,8.19-4.74,8.6   c-1.85,0.41-5.47,1.43-5.86,3.65c0,0-0.31,1.04,0.69,1.9c1,0.86-1.15,4.6-1.15,4.6s-5.31,7.68-7.24,10.17   c-1.93,2.49-3.72,8.71-0.46,11.55c3.26,2.85,17.16,7.49,19.9,8.14c2.74,0.65,4.6-1.63,5.13-1.63c0.52,0,4.41-0.44,5.59,0.5   c1.17,0.94,8.74,7.72,10.25,7.91c1.5,0.18,0.98,0.06,1.61,1.9c0.63,1.84,4.08,8.03,7.49,7.93c3.41-0.1,4.75-3.04,5.25-3.63   c0.5-0.58,2.84-0.31,3.97,0.59c1.13,0.9,4.4,1.71,5.32,1c0.92-0.71,0.79-0.75,1.67-0.56c0.88,0.19,2.37-0.35,3.39,0   c1.03,0.35,3.85,1.76,5.9,5.08c2.05,3.33,5.3,12.36,9.16,14.8c0,0,2.12,0.48,0.77,5.19c-1.34,4.71-0.41,13.96-0.41,13.96   s-0.86,6.15,0.52,9.66c1.38,3.52,3.16,8.44,3.95,9.69c0.8,1.26,4.54,9.33,4.54,9.33s4.39,7.97,4.62,9.02   c0.23,1.05,2.41,4.54,2.6,10.67c0.19,6.13,1.34,15.9,1.09,18.22c-0.25,2.33,3.09,27.68,3.09,27.68s1.01,9.37,0.42,10.96   c-0.58,1.59-1.17,3.51-0.5,6.86c0.67,3.35-0.13,5.44-0.71,7.03c-0.58,1.59-0.25,5.44-0.25,5.44s-4.23,3.47-4.69,5.27   c-0.46,1.8,0,5.9,0,5.9s-2.68,1.3-3.97,3.81c-1.3,2.51-0.75,4.69-2.35,6.02c-1.59,1.34-5.99,7.99-5.99,7.99s-2.09,4.1-2.25,4.9   c-0.17,0.8-0.71,3.64-2.01,4.35c-1.3,0.71-3.85,4.27-2.88,6.57h17.78c0,0,7.57-2.43,6.65-8.15c-0.92-5.74,8.91-7.83,8.87-13.77   c-0.05-5.95-0.38-6.78,0.83-7.62c1.21-0.84,0-6.11,0-6.11l2.35-22.81c0,0,1.51-9.41,1.46-11.17c-0.04-1.76,2.05-0.75,2.18-2.14   c0.12-1.38-1.38-3.3,0.33-3.26c1.72,0.04,5.07,2.51,6.78,6.4c1.72,3.89,3.35,4.73,3.51,9.79c0.17,5.06,0.84,10.75,0.38,12.22   c-0.46,1.46-1.3,8.57-2.39,10.88c-1.09,2.3-3.81,9.75-6.99,11.55c-3.18,1.8-6.61,5.73-3.93,10.33c2.68,4.61,16.45,3.26,16.53,3.1   c0.09-0.17,3.72-4.98,3.72-4.98l0.5-7.28c0,0,6.15-3.26,6.78-7.58c0.63-4.31,0.25-11.88,0.25-11.88s-1.09,0.13-1.42-3.34   c-0.33-3.47-1.17-14.81-2.05-17.2c-0.88-2.38-1.84-1.38-2.14-4.1c-0.3-2.72-2.6-12.05-2.26-16.19c0.33-4.14-0.25-9.08-0.62-10.63   c-0.38-1.55,0.88-5.27,0.75-8.78c-0.13-3.51,0.2-9.41,1.04-13.89c0.84-4.48,1.1-12.43,6.8-17.45c5.71-5.02,6.46-4.35,7.21-3.3   c0.75,1.04-0.41,3.6-2.01,4.1c-1.59,0.5-5.06,0.42-6.57,2.98c-1.51,2.55-3.35,7.15,2.97,7.82s21.05-0.67,23.23-0.58   c0,0,0.33-5.74,2.26-5.81c1.93-0.09,1.93,6.44,1.93,6.44l5.48-0.26l-0.21-7.28c0,0-1.38-2.22-1.17-5.07   c0.21-2.84,2.05-2.67,2.31-2.67c0.25,0,11.59-1.55,12.68-2.72c1.09-1.17,2.46,2.18,2.71,4.56c0.26,2.39,1.93,12.76,3.05,15.23   c1.13,2.47,2.01,2.6,2.93,4.98c0.92,2.38,0.96,4.81,0.96,4.81s2.18-7.03,2.88-9.46c0.71-2.43,0.05-13.68-0.75-15.35   c-0.8-1.68,1.42-0.54,1.97-2.18c0.54-1.63-0.5-3.56-1.13-4.52c-0.63-0.96-0.29-2.92,1.13-2.76c1.42,0.17,8.41,0.17,12-2.51   c3.6-2.67,5.19-3.18,8.62-2.81c3.43,0.38,4.35-0.25,5.32,3.19c0.96,3.43,1.97,3.68,7.2,11.38c5.23,7.7,4.56,10.38,8.62,16.19   c4.06,5.81,9.54,11.88,14.22,15.02c4.69,3.14,8.74,5.19,8.74,5.19l0.5,19.04c0,0-0.21,5.11-3.31,6.53   c-3.09,1.42-1.3,7.24-1.3,7.24s-3.13,1.67-4.22,6.99c-1.09,5.32-2.97,7.16-5.95,10.96c-2.97,3.81-5.94,8.54-8.74,10.76   c-2.8,2.22-6.44,6.19-3.09,12.01c3.35,5.81,19.67,4.02,19.67,4.02s5.57-4.65,4.02-8.88c-1.55-4.22,3.6-2.3,3.72-5.06   c0.12-2.76,3.14-22.22,3.14-22.22s5.98-11.59,7.78-15.57c1.8-3.97,7.62-16.65,7.66-17.16c0.04-0.5,1.93-11.88,1.17-19.7   c-0.75-7.83-1.76-9.58-0.96-9.96c0.79-0.38,19.04,13.89,23.68,22.26c4.64,8.37,4.64,8.37,4.64,8.37s1.05,6.23,2.14,8.45   c1.09,2.22,1.17,6.53,2.59,8.5c1.42,1.97-0.25,6.57,0.21,12.38c0.47,5.82,0,19.67-2.39,22.98c-2.38,3.3-8.95,14.6-13.56,16.77   c-4.6,2.18-3.93,9.88,5.74,9.92c9.66,0.04,9.79-0.17,9.79-0.17s7.58-6.23,5.78-12.68c-1.8-6.44,5.44-7.91,7.7-11.08   c2.26-3.18,1.88-10.5,0.71-15.1c-1.17-4.6,2.01-7.11-0.08-10.84c-2.1-3.73-3.85-13.35-3.85-13.48c0-0.12-3.39-15.69-3.64-19.46   c-0.25-3.76-2.18-19.5-4.14-22.26c-1.97-2.76-10.63-15.44-11.88-18.16c-1.25-2.72-1.25-2.72-1.25-2.72l-0.09-17.16   c0,0,5.57-15.4,5.32-22.55c-0.26-7.16,0.42-10.88,0.42-10.88l5.19,11.34c0,0,0.37,5.48,4.27,13.06   c3.89,7.57,2.35,12.88,9.04,17.99c6.69,5.11,11.84,8.66,11.84,8.66s-1.21,6.55,3.3,12.39c4.52,5.83,6.72,5.52,8.1,7.47   c1.38,1.95,6.4,8.22,6.46,9.79c0,0,1.88-8.66,0.75-12.3c-1.13-3.64,1.63-11.92-0.94-17.51c-2.58-5.59-2.01-14.5-4.2-21.34   c-2.2-6.84,2.76-19.65-2.39-30.13c-5.15-10.48-5.65-22.72-41.42-25.61c0,0-13.75,0.26-16.32-4.14c-2.57-4.4-8.29-9.86-20.71-13.62   c-12.43-3.77-28.18-4.14-28.18-4.14s1.19-3.39-2.51-6.59c-3.7-3.21-13.12-1.38-13.12-1.38s-5.97-2.76-9.48-2.01   c-3.51,0.75-2.83-1.89-8.85-1.26c-6.02,0.63-6.02,0.63-6.02,0.63s3.07-11.74-8.41-17.33l24.69-34.85l0.64,0.33l1.16-1.63   l-0.85-0.5l0.32-0.49l0.4,0.23l0.21-0.31l-0.37-0.23l12.38-17.56l1.28,0.75l0.73-0.94l-1.23-0.84l0.77-1.02l1.19,0.71l0.52-0.71   l-1.13-0.67l25.63-36.84l21.46-30.88l0.88,0.44l0.63-0.81l-0.85-0.54l0.69-0.79l0.72,0.45l0.6-0.63l-0.78-0.66l5.78-6.9   c0,0,4.2-1.69,5.8-8.63l19.65-22.31c0,0,19.11,8.94,23.57,27.71c4.46,18.77,5.78,24.29,4.65,30.82c-1.06,6.12-2.18,7.33-2.31,7.46   c0.52-0.2,17.52-16,17.52-27.36c0,0,10.15,13.64,10.15,15.65C441.39,113.26,445.9,72.16,429.16,57.27z M102.78,268.43   c-0.57-0.31-7.85-5.84-7.85-5.84l8-0.22C102.93,262.38,103.34,268.75,102.78,268.43z M103.15,255.6c0.63,1.69-10.73,1-10.73,1v-1   l5.34-6.65h7.34C105.1,248.94,102.52,253.9,103.15,255.6z M102.78,245.93c-0.31,0,2.32-2.01,2.32-2.01l0.69,2.51   C105.79,246.43,103.09,245.93,102.78,245.93z M125.97,261.31c0.5,1,0.79,1.67,0.6,2.04c-0.18,0.38-0.78,0.88-1.69,0.88   c-0.91,0-1.82,0.12-2.39-0.6c-0.56-0.72-0.07-1.09-0.94-1.85c-0.88-0.75-1.09-0.94-1.66-1.1c-0.57-0.16-0.69,0.1-1.19-0.18   c-0.5-0.28-0.98,0.16-0.88-0.6c0.09-0.75,0.22-1.29,0.72-1.67c0.5-0.37,1.35-0.56,1.35-0.56s2.32-1.26,3.51,0   C124.59,258.92,125.47,260.3,125.97,261.31z M114.58,246.43c0.18,0.07,3.07-0.63,4.01,0c0.94,0.63,0.94,0.94,1.57,1.82   c0.62,0.88,0.69,1.38,1.63,3.45c0.94,2.07-0.19,1.57-0.57,2.32c-0.37,0.75-1.76-0.62-2.82,0.94c-1.07,1.57-1.89,0.25-3.21,0   c-1.32-0.25-2.32-1.88-3.26-3.39c-0.94-1.51-1.82-2.39-1.25-2.26c0.56,0.13,0.91-2.51,0.91-2.51S114.39,246.37,114.58,246.43z    M113.39,240.85l-1.79,3.64l-1.79-3.2L113.39,240.85z M109.87,278.74c-0.92,0-1.66-0.75-1.66-1.67c0-0.92,0.74-1.66,1.66-1.66   c0.92,0,1.66,0.74,1.66,1.66C111.53,277.99,110.79,278.74,109.87,278.74z M126.62,276.37c-2.58,0-4.58-0.12-8.59-1.16   c-4.02-1.04-1.79-0.98-3.11-3.2c-1.32-2.23-2.83-0.57-3.55,0.37c-0.72,0.94-1.38,0.31-1.04-1.69c0.35-2.01,0-2.92-0.63-3.7   c-0.62-0.79-1.82-1.7-1.88-4.02c-0.06-2.32,3.26-2.3,3.26-2.3s4.21,5.78,7.06,6.13c2.86,0.35,5.02,4.08,6.65,4.33   c1.63,0.25,2.07-1.32,3.26-1.26c1.19,0.07,2.29,4.18,2.86,6.21C131.49,278.13,129.2,276.37,126.62,276.37z M186.5,225.66   l-3.07-2.26c6.4-4.96,11.17-2.83,11.17-2.83C189.2,220.83,186.5,225.66,186.5,225.66z M227.99,229.86   c-0.26,0.44-1.01-0.12-1.57-0.69c-0.56-0.56-3.07-2.58-3.95-3.14c-0.88-0.56-3.07-0.5-5.27-0.88c-2.2-0.37-6.02-2.2-13.87-2.83   c-7.85-0.62-8.72,11.8-8.72,11.8s-4.77-4.35-5.19-4.92c0.09-0.62,0.39-2.46,1.17-3.55c0.94-1.32,1.57-0.5,3.64-0.31   c2.06,0.2,1.44-1.45,2.64-2.46c1.19-1.01,1.32-1.18,2.95-1.18c1.63,0,1.94-2.58,1.76-3.14c-0.19-0.56-3.39-1.63-3.39-1.63   s0.88-0.19,1.19-0.31c0.31-0.12,2.69,0,4.45,0.5c1.76,0.5,2.33-0.12,3.14,0c0.82,0.12,2.64,2.45,4.39,4.58   c1.76,2.13,3.14,0.62,4.84,0.88c1.69,0.25,3.39-0.56,4.01,0.56c0.63,1.13,3.26,1.19,4.21,1.19c0.94,0,2.39-0.69,4.14,0.18   C230.31,225.41,228.24,229.42,227.99,229.86z"></path>	</g></g></svg>